<svg xmlns="http://www.w3.org/2000/svg" viewBox="0 0 64 64" width="64" height="64">
  <defs>
    <linearGradient id="opsgenieGradient" x1="0%" y1="0%" x2="100%" y2="100%">
      <stop offset="0%" style="stop-color:#2684FF"/>
      <stop offset="100%" style="stop-color:#0052CC"/>
    </linearGradient>
  </defs>
  <rect width="64" height="64" rx="8" fill="url(#opsgenieGradient)"/>
  <path d="M32 14c-9.941 0-18 8.059-18 18s8.059 18 18 18 18-8.059 18-18-8.059-18-18-18zm0 32c-7.732 0-14-6.268-14-14s6.268-14 14-14 14 6.268 14 14-6.268 14-14 14z" fill="#fff"/>
  <circle cx="32" cy="32" r="8" fill="#fff"/>
  <path d="M32 18v6m0 16v6m-14-14h6m16 0h6" stroke="#fff" stroke-width="2" stroke-linecap="round"/>
</svg>
